<mxfile host="app.diagrams.net" modified="2021-01-23T16:11:19.295Z" agent="5.0 (Macintosh)" etag="5rXwZH8pWMsxFyCZPHCL" version="14.2.7" type="github">
  <diagram id="3u-fTOrLzFbcCMCNCeJl" name="Page-1">
    <mxGraphModel dx="729" dy="1627" grid="1" gridSize="10" guides="1" tooltips="1" connect="1" arrows="1" fold="1" page="1" pageScale="1" pageWidth="827" pageHeight="1169" math="0" shadow="0">
      <root>
        <mxCell id="0" />
        <mxCell id="1" parent="0" />
        <mxCell id="HQrfiZ-eVwE1SqdeKk3v-42" value="" style="rounded=1;whiteSpace=wrap;html=1;dashed=1;dashPattern=1 1;" parent="1" vertex="1">
          <mxGeometry x="354" y="-60" width="136" height="80" as="geometry" />
        </mxCell>
        <mxCell id="HQrfiZ-eVwE1SqdeKk3v-1" value="" style="shape=image;html=1;verticalAlign=top;verticalLabelPosition=bottom;labelBackgroundColor=#ffffff;imageAspect=0;aspect=fixed;image=https://cdn3.iconfinder.com/data/icons/nature-37/120/aeaaqqdqas-128.png" parent="1" vertex="1">
          <mxGeometry x="60" y="50" width="128" height="128" as="geometry" />
        </mxCell>
        <mxCell id="HQrfiZ-eVwE1SqdeKk3v-48" style="edgeStyle=orthogonalEdgeStyle;rounded=0;orthogonalLoop=1;jettySize=auto;html=1;dashed=1;startArrow=classic;startFill=1;" parent="1" source="HQrfiZ-eVwE1SqdeKk3v-2" target="HQrfiZ-eVwE1SqdeKk3v-47" edge="1">
          <mxGeometry relative="1" as="geometry" />
        </mxCell>
        <mxCell id="HQrfiZ-eVwE1SqdeKk3v-2" value="" style="shape=image;html=1;verticalAlign=top;verticalLabelPosition=bottom;labelBackgroundColor=#ffffff;imageAspect=0;aspect=fixed;image=https://cdn1.iconfinder.com/data/icons/flat-christmas-icons-1/75/_city_snowglobe-128.png" parent="1" vertex="1">
          <mxGeometry x="610" y="50" width="128" height="128" as="geometry" />
        </mxCell>
        <mxCell id="HQrfiZ-eVwE1SqdeKk3v-46" style="edgeStyle=orthogonalEdgeStyle;rounded=0;orthogonalLoop=1;jettySize=auto;html=1;dashed=1;startArrow=classic;startFill=1;" parent="1" source="HQrfiZ-eVwE1SqdeKk3v-3" target="HQrfiZ-eVwE1SqdeKk3v-45" edge="1">
          <mxGeometry relative="1" as="geometry" />
        </mxCell>
        <mxCell id="HQrfiZ-eVwE1SqdeKk3v-3" value="" style="shape=image;html=1;verticalAlign=top;verticalLabelPosition=bottom;labelBackgroundColor=#ffffff;imageAspect=0;aspect=fixed;image=https://cdn2.iconfinder.com/data/icons/bitsies/128/City-128.png" parent="1" vertex="1">
          <mxGeometry x="350" y="360" width="128" height="128" as="geometry" />
        </mxCell>
        <mxCell id="HQrfiZ-eVwE1SqdeKk3v-6" style="edgeStyle=orthogonalEdgeStyle;rounded=0;orthogonalLoop=1;jettySize=auto;html=1;startArrow=classic;startFill=1;" parent="1" source="HQrfiZ-eVwE1SqdeKk3v-4" target="HQrfiZ-eVwE1SqdeKk3v-1" edge="1">
          <mxGeometry relative="1" as="geometry" />
        </mxCell>
        <mxCell id="HQrfiZ-eVwE1SqdeKk3v-12" style="edgeStyle=orthogonalEdgeStyle;rounded=0;orthogonalLoop=1;jettySize=auto;html=1;entryX=0;entryY=0.5;entryDx=0;entryDy=0;startArrow=classic;startFill=1;" parent="1" source="HQrfiZ-eVwE1SqdeKk3v-4" target="HQrfiZ-eVwE1SqdeKk3v-11" edge="1">
          <mxGeometry relative="1" as="geometry" />
        </mxCell>
        <mxCell id="HQrfiZ-eVwE1SqdeKk3v-4" value="" style="image;html=1;image=img/lib/clip_art/networking/Wireless_Router_128x128.png" parent="1" vertex="1">
          <mxGeometry x="210" y="40" width="50" height="40" as="geometry" />
        </mxCell>
        <mxCell id="HQrfiZ-eVwE1SqdeKk3v-7" style="edgeStyle=orthogonalEdgeStyle;rounded=0;orthogonalLoop=1;jettySize=auto;html=1;startArrow=classic;startFill=1;" parent="1" source="HQrfiZ-eVwE1SqdeKk3v-5" target="HQrfiZ-eVwE1SqdeKk3v-2" edge="1">
          <mxGeometry relative="1" as="geometry" />
        </mxCell>
        <mxCell id="HQrfiZ-eVwE1SqdeKk3v-13" style="edgeStyle=orthogonalEdgeStyle;rounded=0;orthogonalLoop=1;jettySize=auto;html=1;entryX=1;entryY=0.5;entryDx=0;entryDy=0;startArrow=classic;startFill=1;" parent="1" source="HQrfiZ-eVwE1SqdeKk3v-5" target="HQrfiZ-eVwE1SqdeKk3v-11" edge="1">
          <mxGeometry relative="1" as="geometry" />
        </mxCell>
        <mxCell id="HQrfiZ-eVwE1SqdeKk3v-5" value="" style="image;html=1;image=img/lib/clip_art/networking/Wireless_Router_128x128.png" parent="1" vertex="1">
          <mxGeometry x="570" y="10" width="50" height="40" as="geometry" />
        </mxCell>
        <mxCell id="HQrfiZ-eVwE1SqdeKk3v-9" style="edgeStyle=orthogonalEdgeStyle;rounded=0;orthogonalLoop=1;jettySize=auto;html=1;entryX=0.5;entryY=0;entryDx=0;entryDy=0;" parent="1" source="HQrfiZ-eVwE1SqdeKk3v-8" target="HQrfiZ-eVwE1SqdeKk3v-3" edge="1">
          <mxGeometry relative="1" as="geometry" />
        </mxCell>
        <mxCell id="HQrfiZ-eVwE1SqdeKk3v-14" style="edgeStyle=orthogonalEdgeStyle;rounded=0;orthogonalLoop=1;jettySize=auto;html=1;" parent="1" source="HQrfiZ-eVwE1SqdeKk3v-8" target="HQrfiZ-eVwE1SqdeKk3v-11" edge="1">
          <mxGeometry relative="1" as="geometry" />
        </mxCell>
        <mxCell id="HQrfiZ-eVwE1SqdeKk3v-8" value="" style="image;html=1;image=img/lib/clip_art/networking/Wireless_Router_128x128.png" parent="1" vertex="1">
          <mxGeometry x="410" y="240" width="50" height="40" as="geometry" />
        </mxCell>
        <mxCell id="HQrfiZ-eVwE1SqdeKk3v-10" value="" style="outlineConnect=0;dashed=0;verticalLabelPosition=bottom;verticalAlign=top;align=center;html=1;shape=mxgraph.aws3.hdfs_cluster;gradientColor=#ffffff;gradientDirection=south;fillColor=#FFCC99;" parent="1" vertex="1">
          <mxGeometry x="383" y="-53" width="61.5" height="63" as="geometry" />
        </mxCell>
        <mxCell id="HQrfiZ-eVwE1SqdeKk3v-15" style="edgeStyle=orthogonalEdgeStyle;rounded=0;orthogonalLoop=1;jettySize=auto;html=1;dashed=1;" parent="1" source="HQrfiZ-eVwE1SqdeKk3v-11" target="HQrfiZ-eVwE1SqdeKk3v-10" edge="1">
          <mxGeometry relative="1" as="geometry" />
        </mxCell>
        <mxCell id="HQrfiZ-eVwE1SqdeKk3v-11" value="" style="image;html=1;image=img/lib/clip_art/networking/Cloud_Storage_128x128.png" parent="1" vertex="1">
          <mxGeometry x="364.5" y="74" width="80" height="80" as="geometry" />
        </mxCell>
        <mxCell id="HQrfiZ-eVwE1SqdeKk3v-23" style="edgeStyle=orthogonalEdgeStyle;rounded=0;orthogonalLoop=1;jettySize=auto;html=1;exitX=0.5;exitY=0;exitDx=0;exitDy=0;entryX=0.5;entryY=1;entryDx=0;entryDy=0;dashed=1;startArrow=classic;startFill=1;" parent="1" source="HQrfiZ-eVwE1SqdeKk3v-32" target="HQrfiZ-eVwE1SqdeKk3v-8" edge="1">
          <mxGeometry relative="1" as="geometry" />
        </mxCell>
        <mxCell id="HQrfiZ-eVwE1SqdeKk3v-16" value="" style="shape=image;html=1;verticalAlign=top;verticalLabelPosition=bottom;labelBackgroundColor=#ffffff;imageAspect=0;aspect=fixed;image=https://cdn3.iconfinder.com/data/icons/digital-banking-solid-fast-transfer/512/Near-field_communication_payment-128.png" parent="1" vertex="1">
          <mxGeometry x="530" y="388" width="40" height="40" as="geometry" />
        </mxCell>
        <mxCell id="HQrfiZ-eVwE1SqdeKk3v-27" style="edgeStyle=orthogonalEdgeStyle;rounded=0;orthogonalLoop=1;jettySize=auto;html=1;dashed=1;startArrow=classic;startFill=1;" parent="1" source="HQrfiZ-eVwE1SqdeKk3v-28" target="HQrfiZ-eVwE1SqdeKk3v-4" edge="1">
          <mxGeometry relative="1" as="geometry" />
        </mxCell>
        <mxCell id="HQrfiZ-eVwE1SqdeKk3v-17" value="" style="shape=image;html=1;verticalAlign=top;verticalLabelPosition=bottom;labelBackgroundColor=#ffffff;imageAspect=0;aspect=fixed;image=https://cdn3.iconfinder.com/data/icons/digital-banking-solid-fast-transfer/512/Near-field_communication_payment-128.png" parent="1" vertex="1">
          <mxGeometry x="104" y="214" width="40" height="40" as="geometry" />
        </mxCell>
        <mxCell id="HQrfiZ-eVwE1SqdeKk3v-25" style="edgeStyle=orthogonalEdgeStyle;rounded=0;orthogonalLoop=1;jettySize=auto;html=1;exitX=0.5;exitY=0;exitDx=0;exitDy=0;entryX=0.5;entryY=1;entryDx=0;entryDy=0;dashed=1;startArrow=classic;startFill=1;" parent="1" source="HQrfiZ-eVwE1SqdeKk3v-30" target="HQrfiZ-eVwE1SqdeKk3v-5" edge="1">
          <mxGeometry relative="1" as="geometry" />
        </mxCell>
        <mxCell id="HQrfiZ-eVwE1SqdeKk3v-18" value="" style="shape=image;html=1;verticalAlign=top;verticalLabelPosition=bottom;labelBackgroundColor=#ffffff;imageAspect=0;aspect=fixed;image=https://cdn3.iconfinder.com/data/icons/digital-banking-solid-fast-transfer/512/Near-field_communication_payment-128.png" parent="1" vertex="1">
          <mxGeometry x="660" y="200" width="40" height="40" as="geometry" />
        </mxCell>
        <mxCell id="HQrfiZ-eVwE1SqdeKk3v-26" style="edgeStyle=orthogonalEdgeStyle;rounded=0;orthogonalLoop=1;jettySize=auto;html=1;exitX=1;exitY=0.5;exitDx=0;exitDy=0;entryX=0;entryY=0.75;entryDx=0;entryDy=0;dashed=1;startArrow=classic;startFill=1;" parent="1" source="HQrfiZ-eVwE1SqdeKk3v-19" target="HQrfiZ-eVwE1SqdeKk3v-17" edge="1">
          <mxGeometry relative="1" as="geometry" />
        </mxCell>
        <mxCell id="HQrfiZ-eVwE1SqdeKk3v-19" value="" style="image;html=1;image=img/lib/clip_art/people/Security_Man_Black_128x128.png" parent="1" vertex="1">
          <mxGeometry x="30" y="190" width="40" height="40" as="geometry" />
        </mxCell>
        <mxCell id="HQrfiZ-eVwE1SqdeKk3v-24" style="edgeStyle=orthogonalEdgeStyle;rounded=0;orthogonalLoop=1;jettySize=auto;html=1;entryX=0.5;entryY=1;entryDx=0;entryDy=0;dashed=1;startArrow=classic;startFill=1;" parent="1" source="HQrfiZ-eVwE1SqdeKk3v-20" target="HQrfiZ-eVwE1SqdeKk3v-18" edge="1">
          <mxGeometry relative="1" as="geometry" />
        </mxCell>
        <mxCell id="HQrfiZ-eVwE1SqdeKk3v-20" value="" style="image;html=1;image=img/lib/clip_art/people/Security_Woman_Black_128x128.png" parent="1" vertex="1">
          <mxGeometry x="760" y="178" width="40" height="60" as="geometry" />
        </mxCell>
        <mxCell id="HQrfiZ-eVwE1SqdeKk3v-22" style="edgeStyle=orthogonalEdgeStyle;rounded=0;orthogonalLoop=1;jettySize=auto;html=1;entryX=0.5;entryY=1;entryDx=0;entryDy=0;dashed=1;startArrow=classic;startFill=1;" parent="1" source="HQrfiZ-eVwE1SqdeKk3v-21" target="HQrfiZ-eVwE1SqdeKk3v-16" edge="1">
          <mxGeometry relative="1" as="geometry" />
        </mxCell>
        <mxCell id="HQrfiZ-eVwE1SqdeKk3v-21" value="" style="image;html=1;image=img/lib/clip_art/people/Security_Woman_Black_128x128.png" parent="1" vertex="1">
          <mxGeometry x="500" y="460" width="40" height="60" as="geometry" />
        </mxCell>
        <mxCell id="HQrfiZ-eVwE1SqdeKk3v-38" style="edgeStyle=orthogonalEdgeStyle;rounded=0;orthogonalLoop=1;jettySize=auto;html=1;dashed=1;startArrow=classic;startFill=1;" parent="1" source="HQrfiZ-eVwE1SqdeKk3v-28" target="HQrfiZ-eVwE1SqdeKk3v-37" edge="1">
          <mxGeometry relative="1" as="geometry" />
        </mxCell>
        <mxCell id="HQrfiZ-eVwE1SqdeKk3v-28" value="" style="points=[[0.015,0.015,0],[0.985,0.015,0],[0.985,0.985,0],[0.015,0.985,0],[0.25,0,0],[0.5,0,0],[0.75,0,0],[1,0.25,0],[1,0.5,0],[1,0.75,0],[0.75,1,0],[0.5,1,0],[0.25,1,0],[0,0.75,0],[0,0.5,0],[0,0.25,0]];verticalLabelPosition=bottom;html=1;verticalAlign=top;aspect=fixed;align=center;pointerEvents=1;shape=mxgraph.cisco19.rect;prIcon=wireless_intrusion_prevention;fillColor=#FAFAFA;strokeColor=#005073;" parent="1" vertex="1">
          <mxGeometry x="171" y="150" width="39" height="39" as="geometry" />
        </mxCell>
        <mxCell id="HQrfiZ-eVwE1SqdeKk3v-29" style="edgeStyle=orthogonalEdgeStyle;rounded=0;orthogonalLoop=1;jettySize=auto;html=1;entryX=0.25;entryY=1;entryDx=0;entryDy=0;dashed=1;startArrow=classic;startFill=1;" parent="1" source="HQrfiZ-eVwE1SqdeKk3v-17" target="HQrfiZ-eVwE1SqdeKk3v-28" edge="1">
          <mxGeometry relative="1" as="geometry">
            <mxPoint x="144" y="234" as="sourcePoint" />
            <mxPoint x="222.5" y="80" as="targetPoint" />
          </mxGeometry>
        </mxCell>
        <mxCell id="HQrfiZ-eVwE1SqdeKk3v-41" style="edgeStyle=orthogonalEdgeStyle;rounded=0;orthogonalLoop=1;jettySize=auto;html=1;entryX=0.44;entryY=0.825;entryDx=0;entryDy=0;entryPerimeter=0;dashed=1;startArrow=classic;startFill=1;" parent="1" source="HQrfiZ-eVwE1SqdeKk3v-30" target="HQrfiZ-eVwE1SqdeKk3v-39" edge="1">
          <mxGeometry relative="1" as="geometry" />
        </mxCell>
        <mxCell id="HQrfiZ-eVwE1SqdeKk3v-30" value="" style="points=[[0.015,0.015,0],[0.985,0.015,0],[0.985,0.985,0],[0.015,0.985,0],[0.25,0,0],[0.5,0,0],[0.75,0,0],[1,0.25,0],[1,0.5,0],[1,0.75,0],[0.75,1,0],[0.5,1,0],[0.25,1,0],[0,0.75,0],[0,0.5,0],[0,0.25,0]];verticalLabelPosition=bottom;html=1;verticalAlign=top;aspect=fixed;align=center;pointerEvents=1;shape=mxgraph.cisco19.rect;prIcon=wireless_intrusion_prevention;fillColor=#FAFAFA;strokeColor=#005073;" parent="1" vertex="1">
          <mxGeometry x="560" y="130" width="20" height="20" as="geometry" />
        </mxCell>
        <mxCell id="HQrfiZ-eVwE1SqdeKk3v-31" style="edgeStyle=orthogonalEdgeStyle;rounded=0;orthogonalLoop=1;jettySize=auto;html=1;exitX=0.5;exitY=0;exitDx=0;exitDy=0;entryX=-0.016;entryY=0.18;entryDx=0;entryDy=0;entryPerimeter=0;dashed=1;startArrow=classic;startFill=1;" parent="1" source="HQrfiZ-eVwE1SqdeKk3v-18" target="HQrfiZ-eVwE1SqdeKk3v-30" edge="1">
          <mxGeometry relative="1" as="geometry">
            <mxPoint x="610" y="154" as="sourcePoint" />
            <mxPoint x="607.952" y="73.03999999999996" as="targetPoint" />
          </mxGeometry>
        </mxCell>
        <mxCell id="HQrfiZ-eVwE1SqdeKk3v-35" style="edgeStyle=orthogonalEdgeStyle;rounded=0;orthogonalLoop=1;jettySize=auto;html=1;entryX=0.32;entryY=-0.125;entryDx=0;entryDy=0;entryPerimeter=0;dashed=1;startArrow=classic;startFill=1;" parent="1" source="HQrfiZ-eVwE1SqdeKk3v-32" target="HQrfiZ-eVwE1SqdeKk3v-34" edge="1">
          <mxGeometry relative="1" as="geometry" />
        </mxCell>
        <mxCell id="HQrfiZ-eVwE1SqdeKk3v-32" value="" style="points=[[0.015,0.015,0],[0.985,0.015,0],[0.985,0.985,0],[0.015,0.985,0],[0.25,0,0],[0.5,0,0],[0.75,0,0],[1,0.25,0],[1,0.5,0],[1,0.75,0],[0.75,1,0],[0.5,1,0],[0.25,1,0],[0,0.75,0],[0,0.5,0],[0,0.25,0]];verticalLabelPosition=bottom;html=1;verticalAlign=top;aspect=fixed;align=center;pointerEvents=1;shape=mxgraph.cisco19.rect;prIcon=wireless_intrusion_prevention;fillColor=#FAFAFA;strokeColor=#005073;" parent="1" vertex="1">
          <mxGeometry x="491" y="310" width="39" height="39" as="geometry" />
        </mxCell>
        <mxCell id="HQrfiZ-eVwE1SqdeKk3v-33" style="edgeStyle=orthogonalEdgeStyle;rounded=0;orthogonalLoop=1;jettySize=auto;html=1;exitX=0.5;exitY=0;exitDx=0;exitDy=0;entryX=0.75;entryY=1;entryDx=0;entryDy=0;dashed=1;startArrow=classic;startFill=1;" parent="1" source="HQrfiZ-eVwE1SqdeKk3v-16" target="HQrfiZ-eVwE1SqdeKk3v-32" edge="1">
          <mxGeometry relative="1" as="geometry">
            <mxPoint x="550" y="388" as="sourcePoint" />
            <mxPoint x="447.5" y="280" as="targetPoint" />
          </mxGeometry>
        </mxCell>
        <mxCell id="HQrfiZ-eVwE1SqdeKk3v-34" value="" style="points=[[0.03,0.03,0],[0.5,0,0],[0.97,0.03,0],[1,0.4,0],[0.97,0.745,0],[0.5,1,0],[0.03,0.745,0],[0,0.4,0]];verticalLabelPosition=bottom;html=1;verticalAlign=top;aspect=fixed;align=center;pointerEvents=1;shape=mxgraph.cisco19.workstation;fillColor=#005073;strokeColor=none;" parent="1" vertex="1">
          <mxGeometry x="260" y="380" width="50" height="40" as="geometry" />
        </mxCell>
        <mxCell id="HQrfiZ-eVwE1SqdeKk3v-37" value="" style="points=[[0.03,0.03,0],[0.5,0,0],[0.97,0.03,0],[1,0.4,0],[0.97,0.745,0],[0.5,1,0],[0.03,0.745,0],[0,0.4,0]];verticalLabelPosition=bottom;html=1;verticalAlign=top;aspect=fixed;align=center;pointerEvents=1;shape=mxgraph.cisco19.workstation;fillColor=#005073;strokeColor=none;" parent="1" vertex="1">
          <mxGeometry x="10" y="74" width="50" height="40" as="geometry" />
        </mxCell>
        <mxCell id="HQrfiZ-eVwE1SqdeKk3v-39" value="" style="points=[[0.03,0.03,0],[0.5,0,0],[0.97,0.03,0],[1,0.4,0],[0.97,0.745,0],[0.5,1,0],[0.03,0.745,0],[0,0.4,0]];verticalLabelPosition=bottom;html=1;verticalAlign=top;aspect=fixed;align=center;pointerEvents=1;shape=mxgraph.cisco19.workstation;fillColor=#005073;strokeColor=none;" parent="1" vertex="1">
          <mxGeometry x="750" y="90" width="50" height="40" as="geometry" />
        </mxCell>
        <mxCell id="HQrfiZ-eVwE1SqdeKk3v-44" style="edgeStyle=orthogonalEdgeStyle;rounded=0;orthogonalLoop=1;jettySize=auto;html=1;dashed=1;startArrow=classic;startFill=1;" parent="1" source="HQrfiZ-eVwE1SqdeKk3v-43" target="HQrfiZ-eVwE1SqdeKk3v-1" edge="1">
          <mxGeometry relative="1" as="geometry" />
        </mxCell>
        <mxCell id="HQrfiZ-eVwE1SqdeKk3v-43" value="" style="fontColor=#0066CC;verticalAlign=top;verticalLabelPosition=bottom;labelPosition=center;align=center;html=1;outlineConnect=0;fillColor=#CCCCCC;strokeColor=#6881B3;gradientColor=none;gradientDirection=north;strokeWidth=2;shape=mxgraph.networks.radio_tower;dashed=1;dashPattern=1 1;" parent="1" vertex="1">
          <mxGeometry x="110" y="-60" width="30" height="70" as="geometry" />
        </mxCell>
        <mxCell id="HQrfiZ-eVwE1SqdeKk3v-45" value="" style="fontColor=#0066CC;verticalAlign=top;verticalLabelPosition=bottom;labelPosition=center;align=center;html=1;outlineConnect=0;fillColor=#CCCCCC;strokeColor=#6881B3;gradientColor=none;gradientDirection=north;strokeWidth=2;shape=mxgraph.networks.radio_tower;dashed=1;dashPattern=1 1;" parent="1" vertex="1">
          <mxGeometry x="414.5" y="540" width="30" height="70" as="geometry" />
        </mxCell>
        <mxCell id="HQrfiZ-eVwE1SqdeKk3v-47" value="" style="fontColor=#0066CC;verticalAlign=top;verticalLabelPosition=bottom;labelPosition=center;align=center;html=1;outlineConnect=0;fillColor=#CCCCCC;strokeColor=#6881B3;gradientColor=none;gradientDirection=north;strokeWidth=2;shape=mxgraph.networks.radio_tower;dashed=1;dashPattern=1 1;" parent="1" vertex="1">
          <mxGeometry x="700" y="-70" width="30" height="70" as="geometry" />
        </mxCell>
      </root>
    </mxGraphModel>
  </diagram>
</mxfile>
